<svg id="Layer_1" data-name="Layer 1" xmlns="http://www.w3.org/2000/svg" viewBox="0 0 40 40"><defs><style>.cls-1{fill:#00dd80;}.cls-2{fill:#00aa63;}.cls-3{fill:#f2f2f2;}.cls-4{fill:#2dbe60;}</style></defs><path class="cls-1" d="M34,9.7v9.6c0,4.7-2.4,9.2-7.2,13.2A36.2,36.2,0,0,1,20,37a.1.1,0,0,1-.1-.1C16.8,35.4,6,29.2,6,19.3V9.7A1.6,1.6,0,0,1,7.3,8.1,31.5,31.5,0,0,0,17.9,3.7a3.2,3.2,0,0,1,2-.7H20a3.1,3.1,0,0,1,2.1.7A31.5,31.5,0,0,0,32.7,8.1,1.6,1.6,0,0,1,34,9.7Z"/><path class="cls-2" d="M34,9.7v9.6c0,4.7-2.4,9.2-7.2,13.2A36.2,36.2,0,0,1,20,37a.1.1,0,0,1-.1-.1V3H20a3.1,3.1,0,0,1,2.1.7A31.5,31.5,0,0,0,32.7,8.1,1.6,1.6,0,0,1,34,9.7Z"/><path class="cls-3" d="M26.5,16.5a6.5,6.5,0,0,0-2.9-3,7,7,0,0,0-6.9-.2A7.2,7.2,0,0,0,13.5,23a7.3,7.3,0,0,0,2.4,2.8,7.5,7.5,0,0,0,7.4.5A7.3,7.3,0,0,0,26.5,16.5Z"/><path class="cls-4" d="M18.5,23.3h0l-.4-.2-2.6-2.7,1-1,2.1,2.3,4.9-4.6,1,1-5.5,5Z"/></svg>