<svg id="Layer_1" data-name="Layer 1" xmlns="http://www.w3.org/2000/svg" viewBox="0 0 40 40"><defs><style>.cls-1{fill:#ffc008;}.cls-2{fill:#ff9a07;}.cls-3{fill:#15c3f9;}</style></defs><rect class="cls-1" x="3" y="19.6" width="6.2" height="15.71"/><rect class="cls-2" x="3" y="24.4" width="6.2" height="10.95"/><rect class="cls-1" x="12.3" y="14.4" width="6.2" height="20.95"/><rect class="cls-2" x="12.3" y="20.7" width="6.2" height="14.62"/><rect class="cls-1" x="21.5" y="19.6" width="6.2" height="15.71"/><rect class="cls-2" x="21.5" y="25" width="6.2" height="10.4"/><rect class="cls-1" x="30.8" y="17" width="6.2" height="18.33"/><rect class="cls-2" x="30.8" y="21.7" width="6.2" height="13.71"/><path class="cls-3" d="M35.2,6.7,23.7,14h-.4l-.5-.2-1.7-2L16.4,6.2,5.2,13.6a.7.7,0,0,1-.7-1.1L16.2,4.8a.6.6,0,0,1,.9.1l5.1,6.2,1.3,1.5,11-7Z"/><path class="cls-3" d="M35.4,5.2l-2.1-.4a.4.4,0,0,0-.5.1h0A.7.7,0,0,0,33,6.1l.8.2c.4,0,.6.4.5.8l-.2.8a.7.7,0,0,0,1,.7h.1a.5.5,0,0,0,.2-.4L35.9,6A.7.7,0,0,0,35.4,5.2Z"/></svg>