<svg id="Layer_1" data-name="Layer 1" xmlns="http://www.w3.org/2000/svg" viewBox="0 0 40 40"><defs><style>.cls-1{fill:#ea8806;}.cls-2{fill:#ffc008;}.cls-3{fill:#ffe47f;}.cls-4{fill:#ff9a07;}</style></defs><path class="cls-1" d="M3.8,21.9v.7a.3.3,0,0,0,.3.3H18a.3.3,0,0,0,.3-.3v-.7Z"/><rect class="cls-2" x="16.1" y="20.6" width="0.7" height="2.07"/><rect class="cls-2" x="17.3" y="20.6" width="0.3" height="2.07"/><rect class="cls-2" x="14.1" y="20.6" width="0.3" height="2.07"/><rect class="cls-3" x="13.3" y="20.6" width="0.8" height="2.07"/><rect class="cls-3" x="16.7" y="20.6" width="0.6" height="2.07"/><rect class="cls-3" x="14.4" y="20.6" width="1.6" height="2.07"/><path class="cls-4" d="M4.1,20.6a.3.3,0,0,0-.3.3v1.5a.3.3,0,0,0,.3.3H6.4V20.6Z"/><path class="cls-3" d="M18,20.6h-.3v2.1H18a.3.3,0,0,0,.3-.3V20.9A.3.3,0,0,0,18,20.6Z"/><rect class="cls-2" x="6.4" y="20.6" width="6.9" height="2.07"/><path class="cls-1" d="M3.8,26.4v.7a.3.3,0,0,0,.3.3H18a.3.3,0,0,0,.3-.3v-.7Z"/><rect class="cls-2" x="16.1" y="25.1" width="0.7" height="2.07"/><rect class="cls-2" x="17.3" y="25.1" width="0.3" height="2.07"/><rect class="cls-2" x="14.1" y="25.1" width="0.3" height="2.07"/><rect class="cls-3" x="13.3" y="25.1" width="0.8" height="2.07"/><rect class="cls-3" x="16.7" y="25.1" width="0.6" height="2.07"/><rect class="cls-3" x="14.4" y="25.1" width="1.6" height="2.07"/><path class="cls-4" d="M4.1,25.1a.3.3,0,0,0-.3.3V27c0,.1.1.2.3.2H6.4V25.1Z"/><path class="cls-3" d="M18,25.1h-.3v2.1H18c.2,0,.3-.1.3-.2V25.4A.3.3,0,0,0,18,25.1Z"/><rect class="cls-2" x="6.4" y="25.1" width="6.9" height="2.07"/><path class="cls-1" d="M3.8,33.2V34c0,.1.1.2.3.2H18c.2,0,.3-.1.3-.2v-.8Z"/><rect class="cls-2" x="16.1" y="32" width="0.7" height="2.07"/><rect class="cls-2" x="17.3" y="32" width="0.3" height="2.07"/><rect class="cls-2" x="14.1" y="32" width="0.3" height="2.07"/><rect class="cls-3" x="13.3" y="32" width="0.8" height="2.07"/><rect class="cls-3" x="16.7" y="32" width="0.6" height="2.07"/><rect class="cls-3" x="14.4" y="32" width="1.6" height="2.07"/><path class="cls-4" d="M4.1,32c-.2,0-.3.1-.3.2v1.6c0,.1.1.2.3.2H6.4V32Z"/><path class="cls-3" d="M18,32h-.3v2H18c.2,0,.3-.1.3-.2V32.2C18.3,32.1,18.2,32,18,32Z"/><rect class="cls-2" x="6.4" y="32" width="6.9" height="2.07"/><path class="cls-1" d="M4.9,24.2v.7a.2.2,0,0,0,.2.2h14a.2.2,0,0,0,.2-.2v-.7Z"/><rect class="cls-2" x="17.1" y="22.9" width="0.7" height="2.07"/><rect class="cls-2" x="18.4" y="22.9" width="0.3" height="2.07"/><rect class="cls-2" x="15.1" y="22.9" width="0.3" height="2.07"/><rect class="cls-3" x="14.3" y="22.9" width="0.8" height="2.07"/><rect class="cls-3" x="17.8" y="22.9" width="0.6" height="2.07"/><rect class="cls-3" x="15.5" y="22.9" width="1.6" height="2.07"/><path class="cls-4" d="M5.1,22.9a.2.2,0,0,0-.2.2v1.6a.2.2,0,0,0,.2.2H7.4v-2Z"/><path class="cls-3" d="M19.1,22.9h-.4v2h.4a.2.2,0,0,0,.2-.2V23.1A.2.2,0,0,0,19.1,22.9Z"/><rect class="cls-2" x="7.4" y="22.9" width="6.9" height="2.07"/><path class="cls-1" d="M4.9,28.7v.7c0,.2.1.3.2.3h14c.1,0,.2-.1.2-.3v-.7Z"/><rect class="cls-2" x="17.1" y="27.4" width="0.7" height="2.07"/><rect class="cls-2" x="18.4" y="27.4" width="0.3" height="2.07"/><rect class="cls-2" x="15.1" y="27.4" width="0.3" height="2.07"/><rect class="cls-3" x="14.3" y="27.4" width="0.8" height="2.07"/><rect class="cls-3" x="17.8" y="27.4" width="0.6" height="2.07"/><rect class="cls-3" x="15.5" y="27.4" width="1.6" height="2.07"/><path class="cls-4" d="M5.1,27.4c-.1,0-.2.1-.2.3v1.5c0,.2.1.3.2.3H7.4V27.4Z"/><path class="cls-3" d="M19.1,27.4h-.4v2.1h.4c.1,0,.2-.1.2-.3V27.7C19.3,27.5,19.2,27.4,19.1,27.4Z"/><rect class="cls-2" x="7.4" y="27.4" width="6.9" height="2.07"/><path class="cls-1" d="M4.9,31v.7a.2.2,0,0,0,.2.2h14a.2.2,0,0,0,.2-.2V31Z"/><rect class="cls-2" x="17.1" y="29.7" width="0.7" height="2.07"/><rect class="cls-2" x="18.4" y="29.7" width="0.3" height="2.07"/><rect class="cls-2" x="15.1" y="29.7" width="0.3" height="2.07"/><rect class="cls-3" x="14.3" y="29.7" width="0.8" height="2.07"/><rect class="cls-3" x="17.8" y="29.7" width="0.6" height="2.07"/><rect class="cls-3" x="15.5" y="29.7" width="1.6" height="2.07"/><path class="cls-4" d="M5.1,29.7l-.2.2v1.6a.2.2,0,0,0,.2.2H7.4v-2Z"/><path class="cls-3" d="M19.1,29.7h-.4v2h.4a.2.2,0,0,0,.2-.2V29.9Z"/><rect class="cls-2" x="7.4" y="29.7" width="6.9" height="2.07"/><path class="cls-1" d="M22.5,19.6v.7c0,.2.1.3.2.3h14a.3.3,0,0,0,.3-.3v-.7Z"/><rect class="cls-2" x="34.7" y="18.3" width="0.7" height="2.07"/><rect class="cls-2" x="36" y="18.3" width="0.3" height="2.07"/><rect class="cls-2" x="32.8" y="18.3" width="0.3" height="2.07"/><rect class="cls-3" x="31.9" y="18.3" width="0.8" height="2.07"/><rect class="cls-3" x="35.4" y="18.3" width="0.6" height="2.07"/><rect class="cls-3" x="33.1" y="18.3" width="1.6" height="2.07"/><path class="cls-4" d="M22.7,18.3c-.1,0-.2.2-.2.3v1.5c0,.2.1.3.2.3h2.4V18.3Z"/><path class="cls-3" d="M36.7,18.3h-.4v2.1h.4a.3.3,0,0,0,.3-.3V18.6A.5.5,0,0,0,36.7,18.3Z"/><rect class="cls-2" x="25.1" y="18.3" width="6.9" height="2.07"/><path class="cls-1" d="M22.5,21.9v.7c0,.2.1.3.2.3h14a.3.3,0,0,0,.3-.3v-.7Z"/><rect class="cls-2" x="34.7" y="20.6" width="0.7" height="2.07"/><rect class="cls-2" x="36" y="20.6" width="0.3" height="2.07"/><rect class="cls-2" x="32.8" y="20.6" width="0.3" height="2.07"/><rect class="cls-3" x="31.9" y="20.6" width="0.8" height="2.07"/><rect class="cls-3" x="35.4" y="20.6" width="0.6" height="2.07"/><rect class="cls-3" x="33.1" y="20.6" width="1.6" height="2.07"/><path class="cls-4" d="M22.7,20.6c-.1,0-.2.1-.2.3v1.5c0,.2.1.3.2.3h2.4V20.6Z"/><path class="cls-3" d="M36.7,20.6h-.4v2.1h.4a.3.3,0,0,0,.3-.3V20.9A.3.3,0,0,0,36.7,20.6Z"/><rect class="cls-2" x="25.1" y="20.6" width="6.9" height="2.07"/><path class="cls-1" d="M22.5,26.4v.7c0,.2.1.3.2.3h14a.3.3,0,0,0,.3-.3v-.7Z"/><rect class="cls-2" x="34.7" y="25.1" width="0.7" height="2.07"/><rect class="cls-2" x="36" y="25.1" width="0.3" height="2.07"/><rect class="cls-2" x="32.8" y="25.1" width="0.3" height="2.07"/><rect class="cls-3" x="31.9" y="25.1" width="0.8" height="2.07"/><rect class="cls-3" x="35.4" y="25.1" width="0.6" height="2.07"/><rect class="cls-3" x="33.1" y="25.1" width="1.6" height="2.07"/><path class="cls-4" d="M22.7,25.1c-.1,0-.2.2-.2.3V27a.2.2,0,0,0,.2.2h2.4V25.1Z"/><path class="cls-3" d="M36.7,25.1h-.4v2.1h.4c.1,0,.3-.1.3-.2V25.4Z"/><rect class="cls-2" x="25.1" y="25.1" width="6.9" height="2.07"/><path class="cls-1" d="M22.5,33.2V34a.2.2,0,0,0,.2.2h14c.1,0,.3-.1.3-.2v-.8Z"/><rect class="cls-2" x="34.7" y="32" width="0.7" height="2.07"/><rect class="cls-2" x="36" y="32" width="0.3" height="2.07"/><rect class="cls-2" x="32.8" y="32" width="0.3" height="2.07"/><rect class="cls-3" x="31.9" y="32" width="0.8" height="2.07"/><rect class="cls-3" x="35.4" y="32" width="0.6" height="2.07"/><rect class="cls-3" x="33.1" y="32" width="1.6" height="2.07"/><path class="cls-4" d="M22.7,32a.2.2,0,0,0-.2.2v1.6a.2.2,0,0,0,.2.2h2.4V32Z"/><path class="cls-3" d="M36.7,32h-.4v2h.4c.1,0,.3-.1.3-.2V32.2C37,32.1,36.8,32,36.7,32Z"/><rect class="cls-2" x="25.1" y="32" width="6.9" height="2.07"/><path class="cls-1" d="M23.5,24.2v.7c0,.1.1.2.3.2H37.7c.2,0,.3-.1.3-.2v-.7Z"/><rect class="cls-2" x="35.8" y="22.9" width="0.7" height="2.07"/><rect class="cls-2" x="37" y="22.9" width="0.3" height="2.07"/><rect class="cls-2" x="33.8" y="22.9" width="0.3" height="2.07"/><rect class="cls-3" x="33" y="22.9" width="0.8" height="2.07"/><rect class="cls-3" x="36.5" y="22.9" width="0.6" height="2.07"/><rect class="cls-3" x="34.1" y="22.9" width="1.6" height="2.07"/><path class="cls-4" d="M23.8,22.9c-.2,0-.3.1-.3.2v1.6c0,.1.1.2.3.2h2.3v-2Z"/><path class="cls-3" d="M37.7,22.9h-.3v2h.3c.2,0,.3-.1.3-.2V23.1C38,23,37.9,22.9,37.7,22.9Z"/><rect class="cls-2" x="26.1" y="22.9" width="6.9" height="2.07"/><path class="cls-1" d="M23.5,17.3v.8c0,.1.1.2.3.2H37.7c.2,0,.3-.1.3-.2v-.8Z"/><rect class="cls-2" x="35.8" y="16.1" width="0.7" height="2.07"/><rect class="cls-2" x="37" y="16.1" width="0.3" height="2.07"/><rect class="cls-2" x="33.8" y="16.1" width="0.3" height="2.07"/><rect class="cls-3" x="33" y="16.1" width="0.8" height="2.07"/><rect class="cls-3" x="36.5" y="16.1" width="0.6" height="2.07"/><rect class="cls-3" x="34.1" y="16.1" width="1.6" height="2.07"/><path class="cls-4" d="M23.8,16.1c-.2,0-.3.1-.3.2v1.6c0,.1.1.2.3.2h2.3v-2Z"/><path class="cls-3" d="M37.7,16.1h-.3v2h.3c.2,0,.3-.1.3-.2V16.3C38,16.2,37.9,16.1,37.7,16.1Z"/><rect class="cls-2" x="26.1" y="16.1" width="6.9" height="2.07"/><path class="cls-1" d="M23.5,28.7v.7a.3.3,0,0,0,.3.3H37.7a.3.3,0,0,0,.3-.3v-.7Z"/><rect class="cls-2" x="35.8" y="27.4" width="0.7" height="2.07"/><rect class="cls-2" x="37" y="27.4" width="0.3" height="2.07"/><rect class="cls-2" x="33.8" y="27.4" width="0.3" height="2.07"/><rect class="cls-3" x="33" y="27.4" width="0.8" height="2.07"/><rect class="cls-3" x="36.5" y="27.4" width="0.6" height="2.07"/><rect class="cls-3" x="34.1" y="27.4" width="1.6" height="2.07"/><path class="cls-4" d="M23.8,27.4a.3.3,0,0,0-.3.3v1.5a.3.3,0,0,0,.3.3h2.3V27.4Z"/><path class="cls-3" d="M37.7,27.4h-.3v2.1h.3a.3.3,0,0,0,.3-.3V27.7A.3.3,0,0,0,37.7,27.4Z"/><rect class="cls-2" x="26.1" y="27.4" width="6.9" height="2.07"/><path class="cls-1" d="M23.5,31v.7c0,.1.1.2.3.2H37.7c.2,0,.3-.1.3-.2V31Z"/><rect class="cls-2" x="35.8" y="29.7" width="0.7" height="2.07"/><rect class="cls-2" x="37" y="29.7" width="0.3" height="2.07"/><rect class="cls-2" x="33.8" y="29.7" width="0.3" height="2.07"/><rect class="cls-3" x="33" y="29.7" width="0.8" height="2.07"/><rect class="cls-3" x="36.5" y="29.7" width="0.6" height="2.07"/><rect class="cls-3" x="34.1" y="29.7" width="1.6" height="2.07"/><path class="cls-4" d="M23.8,29.7c-.2,0-.3.1-.3.2v1.6c0,.1.1.2.3.2h2.3v-2Z"/><path class="cls-3" d="M37.7,29.7h-.3v2h.3c.2,0,.3-.1.3-.2V29.9C38,29.8,37.9,29.7,37.7,29.7Z"/><rect class="cls-2" x="26.1" y="29.7" width="6.9" height="2.07"/><path class="cls-2" d="M32.2,6.6l-4.8-.8-.2,1,3.8.6L18.8,14.6l-1.4-2.5L16.7,11l-.3-.2a.3.3,0,0,0-.4,0L5.8,16.9l.5.9L16.1,12l.8,1.4,1.3,2.2.3.2h.4L31.4,8.4l-.6,3.5h1.1l.8-4.8A.6.6,0,0,0,32.2,6.6Z"/><circle class="cls-2" cx="19.8" cy="8.2" r="0.7"/><path class="cls-4" d="M36.9,12.8l.3-.3.3.3h.3a.2.2,0,0,0,0-.3l-.2-.3.2-.3a.3.3,0,0,0,0-.4h-.3l-.3.3-.3-.3h-.4a.3.3,0,0,0,0,.4l.3.3-.3.3a.2.2,0,0,0,0,.3Z"/><path class="cls-4" d="M3.7,17.8H3.3v-.4a.3.3,0,0,0-.3-.3.3.3,0,0,0-.3.3v.4H2.3a.3.3,0,0,0-.3.3.3.3,0,0,0,.3.3h.4v.5c0,.1.2.2.3.2s.3-.1.3-.2v-.5h.4a.3.3,0,0,0,.3-.3A.3.3,0,0,0,3.7,17.8Z"/></svg>