<svg id="Layer_1" data-name="Layer 1" xmlns="http://www.w3.org/2000/svg" viewBox="0 0 40 40"><defs><style>.cls-1{fill:#05c66e;}.cls-2{fill:#00dd80;}.cls-3{fill:#47fca1;}.cls-4{fill:#00aa63;}.cls-5{fill:#29a850;}</style></defs><path class="cls-1" d="M3,10.5v6.3C3,18.6,7.4,20,12.8,20s9.7-1.4,9.7-3.2V10.5Z"/><path class="cls-2" d="M22.5,16.8v6.3c0,1.8-4.3,3.2-9.7,3.2S3,24.9,3,23.1V16.8C3,18.6,7.4,20,12.8,20S22.5,18.6,22.5,16.8Z"/><path class="cls-3" d="M22.5,23.1v6.4c0,1.7-4.3,3.1-9.7,3.1S3,31.2,3,29.5V23.1c0,1.8,4.4,3.2,9.8,3.2S22.5,24.9,22.5,23.1Z"/><ellipse class="cls-4" cx="12.8" cy="10.5" rx="9.8" ry="3.2"/><path class="cls-5" d="M36.8,15.6,31.5,9.8a.7.7,0,0,0-.9,0l-5.3,5.8a.8.8,0,0,0,0,1.1.7.7,0,0,0,1.1-.1l3.9-4.1V29.7a.8.8,0,0,0,.7.8h0a.8.8,0,0,0,.8-.8V12.5l3.9,4.1a.7.7,0,0,0,1.1.1A.8.8,0,0,0,36.8,15.6Z"/></svg>