<svg id="Layer_1" data-name="Layer 1" xmlns="http://www.w3.org/2000/svg" viewBox="0 0 40 40"><defs><style>.cls-1{fill:#f5b28e;}.cls-2{fill:#ffc8b0;}.cls-3{fill:#0092db;}.cls-4{fill:#00dd80;}.cls-5{fill:#00aa63;}.cls-6{fill:#fff;}</style></defs><path class="cls-1" d="M3.6,24.4a.2.2,0,0,0,.2.2h.1l6.2,1.9h.3a.2.2,0,0,0-.1-.3L6.5,23.9a1.2,1.2,0,0,1-.6-.8,1,1,0,0,1,.2-.9,1.2,1.2,0,0,1,1.5-.4l3.7,1.9h.4c0-.1.1-.2,0-.3h0l-4-8.9a1.6,1.6,0,0,0-1.8-.8,1.5,1.5,0,0,0-1,1.2L3.7,24.1Zm.6-.2,1.2-9.3a.8.8,0,0,1,.7-.8.9.9,0,0,1,1.1.5L11,23,7.8,21.4H7.4c0-.1-.1-.1-.2-.1H6.3l-.6.5a1.6,1.6,0,0,0-.3,1.3,1.5,1.5,0,0,0,.8,1.1l2,1.1Z"/><path class="cls-2" d="M5.4,23.2a1.6,1.6,0,0,1,.3-1.3l.6-.5h.9c.1,0,.2,0,.2.1h.4L11,23,7.2,14.6a.9.9,0,0,0-1.1-.5.8.8,0,0,0-.7.8L4.2,24.2l4,1.2-2-1.1A1.5,1.5,0,0,1,5.4,23.2Z"/><path class="cls-1" d="M3.9,28.2,7.5,32l.4.4a.1.1,0,0,0,.1.1h7.6c.2,0,.2-.1.2-.3V28.1h0l-3-4.1h-.1l-1-.5h-.1L11,23,7.8,21.4H7.4c0-.1-.1-.1-.2-.1H6.3l-.6.5a1.6,1.6,0,0,0-.3,1.3,1.5,1.5,0,0,0,.8,1.1l2,1.1-4-1.2H3.6A3.1,3.1,0,0,0,3.9,28.2Zm0-3.6,6.2,1.9h.3a.2.2,0,0,0-.1-.3L6.5,23.9a1.2,1.2,0,0,1-.6-.8,1,1,0,0,1,.2-.9,1.2,1.2,0,0,1,1.5-.4l3.7,1.9h.1l1.1.5,2.9,4V32H8.1L4.2,27.8A2.7,2.7,0,0,1,3.9,24.6Z"/><path class="cls-2" d="M4.2,27.8,8.1,32h7.3V28.2l-2.9-4-1.1-.5h-.1L7.6,21.8a1.2,1.2,0,0,0-1.5.4,1,1,0,0,0-.2.9,1.2,1.2,0,0,0,.6.8l3.8,2.2a.2.2,0,0,1,.1.3h-.3L3.9,24.6A2.7,2.7,0,0,0,4.2,27.8Z"/><path class="cls-3" d="M7.5,32l.4.4a.1.1,0,0,0,.1.1h7.6c.2,0,.2-.1.2-.3V32Z"/><path class="cls-3" d="M5.8,32.2v3.1a.2.2,0,0,0,.2.2H17a.2.2,0,0,0,.2-.2V32.2A.2.2,0,0,0,17,32H15.8v.2c0,.2,0,.3-.2.3H8a.1.1,0,0,1-.1-.1L7.5,32H6A.2.2,0,0,0,5.8,32.2Z"/><path class="cls-1" d="M36.3,24.1l-1.2-9.3a1.5,1.5,0,0,0-1-1.2,1.6,1.6,0,0,0-1.8.8l-4,8.9h0c-.1.1,0,.2,0,.3h.4l3.7-1.9a1.2,1.2,0,0,1,1.5.4,1,1,0,0,1,.2.9,1.2,1.2,0,0,1-.6.8l-3.8,2.2a.2.2,0,0,0-.1.3h.3l6.2-1.9h.1a.2.2,0,0,0,.2-.2Zm-4.5,1.3,2-1.1a1.5,1.5,0,0,0,.8-1.1,1.6,1.6,0,0,0-.3-1.3l-.6-.5h-.9c-.1,0-.2,0-.2.1h-.4L29,23l3.8-8.4a.9.9,0,0,1,1.1-.5.8.8,0,0,1,.7.8l1.2,9.3Z"/><path class="cls-2" d="M34.6,23.2a1.6,1.6,0,0,0-.3-1.3l-.6-.5h-.9c-.1,0-.2,0-.2.1h-.4L29,23l3.8-8.4a.9.9,0,0,1,1.1-.5.8.8,0,0,1,.7.8l1.2,9.3-4,1.2,2-1.1A1.5,1.5,0,0,0,34.6,23.2Z"/><path class="cls-1" d="M36.4,24.2h-.6l-4,1.2,2-1.1a1.5,1.5,0,0,0,.8-1.1,1.6,1.6,0,0,0-.3-1.3l-.6-.5h-.9c-.1,0-.2,0-.2.1h-.4L29,23l-.6.3h-.1l-1,.5h-.1l-3,4.1h0v4.1c0,.2,0,.3.2.3H32a.1.1,0,0,0,.1-.1l.4-.4,3.6-3.8A3.1,3.1,0,0,0,36.4,24.2Zm-.6,3.6L31.9,32H24.6V28.2l2.9-4,1.1-.5h.1l3.7-1.9a1.2,1.2,0,0,1,1.5.4,1,1,0,0,1,.2.9,1.2,1.2,0,0,1-.6.8l-3.8,2.2a.2.2,0,0,0-.1.3h.3l6.2-1.9A2.7,2.7,0,0,1,35.8,27.8Z"/><path class="cls-2" d="M35.8,27.8,31.9,32H24.6V28.2l2.9-4,1.1-.5h.1l3.7-1.9a1.2,1.2,0,0,1,1.5.4,1,1,0,0,1,.2.9,1.2,1.2,0,0,1-.6.8l-3.8,2.2a.2.2,0,0,0-.1.3h.3l6.2-1.9A2.7,2.7,0,0,1,35.8,27.8Z"/><path class="cls-3" d="M24.2,32v.2c0,.2,0,.3.2.3H32a.1.1,0,0,0,.1-.1l.4-.4Z"/><path class="cls-3" d="M34.2,32.2v3.1a.2.2,0,0,1-.2.2H23a.2.2,0,0,1-.2-.2V32.2A.2.2,0,0,1,23,32h1.2v.2c0,.2,0,.3.2.3H32a.1.1,0,0,0,.1-.1l.4-.4H34A.2.2,0,0,1,34.2,32.2Z"/><path class="cls-4" d="M25.4,18.4A7.6,7.6,0,0,1,14.6,7.6a6.8,6.8,0,0,1,4.2-2.1,7.2,7.2,0,0,1,4.1.4,8.1,8.1,0,0,1,4.2,4.2,8.2,8.2,0,0,1,.5,4.1A7.5,7.5,0,0,1,25.4,18.4Z"/><path class="cls-5" d="M26.7,13a6.8,6.8,0,1,1-13.5,0,6.2,6.2,0,0,1,.9-3.2,6.9,6.9,0,0,1,3.7-3.2A7.8,7.8,0,0,1,20,6.2a7.8,7.8,0,0,1,2.2.4,7.6,7.6,0,0,1,2.6,1.6,9.1,9.1,0,0,1,1.1,1.6A6.1,6.1,0,0,1,26.7,13Z"/><path class="cls-6" d="M22.4,13.6a1.6,1.6,0,0,0-.8-.6l-.9-.4h-.3v-2h0a2.2,2.2,0,0,1,.9.7v.5a.5.5,0,0,0,1,0V10a.5.5,0,0,0-.5-.4.5.5,0,0,0-.5.3l-.9-.3V9.3a.5.5,0,0,0-1,0v.2a2.5,2.5,0,0,0-1.5.5,2,2,0,0,0-.6,1.5,1.6,1.6,0,0,0,.3.9l.7.6,1.1.3v2.3h-.1l-.9-.5v-.5A.5.5,0,0,0,18,14a.5.5,0,0,0-.5.5v1.7a.5.5,0,0,0,.5.4.4.4,0,0,0,.4-.4,1.9,1.9,0,0,0,1,.3v.2a.5.5,0,0,0,1,0h0A2.8,2.8,0,0,0,22,16a1.8,1.8,0,0,0,.6-1.5A.9.9,0,0,0,22.4,13.6Zm-3-1.3h0l-.6-.2-.4-.3c-.1-.1-.1-.2-.1-.4a.7.7,0,0,1,.3-.6,1,1,0,0,1,.8-.3v1.9Zm1.9,3a1.9,1.9,0,0,1-.9.3v-2h.2l.5.2.4.3a.5.5,0,0,1,.2.4A.9.9,0,0,1,21.3,15.3Z"/></svg>