<?xml version="1.0" encoding="utf-8"?>
<!-- Generator: Adobe Illustrator 24.1.2, SVG Export Plug-In . SVG Version: 6.00 Build 0)  -->
<svg version="1.1" id="Layer_1" xmlns="http://www.w3.org/2000/svg" xmlns:xlink="http://www.w3.org/1999/xlink" x="0px" y="0px"
	 viewBox="0 0 40 40" style="enable-background:new 0 0 40 40;" xml:space="preserve">
<style type="text/css">
	.st0{fill:#05C66E;}
	.st1{fill:#00DD80;}
	.st2{fill:#47FCA1;}
	.st3{fill:#00AA63;}
	.st4{fill:#29A850;}
</style>
<g>
	<path class="st0" d="M3,9.8v7.8c0,2.2,4.5,4,10,4s9.9-1.7,9.9-4V9.8H3z"/>
	<path class="st1" d="M23,17.5v7.8c0,2.2-4.4,4-9.9,4s-10-1.7-10-4v-7.8c0,2.2,4.5,4,10,4S23,19.8,23,17.5z"/>
	<path class="st2" d="M23,25.3v7.9c0,2.1-4.4,3.8-9.9,3.8S3,35.3,3,33.2v-7.9c0,2.2,4.5,4,10,4S23,27.6,23,25.3z"/>
	<ellipse class="st3" cx="13" cy="9.8" rx="10" ry="4"/>
	<path class="st4" d="M36.4,14l-5.3-5.8c-0.3-0.2-0.6-0.2-0.9,0L24.9,14c-0.3,0.3-0.3,0.8,0,1.1c0.3,0.3,0.7,0.3,1,0
		c0,0,0.1-0.1,0.1-0.1l3.9-4.1v23.2c0,0.4,0.3,0.7,0.7,0.8l0,0c0.4,0,0.8-0.4,0.8-0.8V10.9l3.9,4.1c0.2,0.3,0.6,0.4,1,0.2
		c0,0,0.1-0.1,0.1-0.1C36.7,14.8,36.7,14.3,36.4,14z"/>
</g>
</svg>
