<svg id="Layer_1" data-name="Layer 1" xmlns="http://www.w3.org/2000/svg" viewBox="0 0 40 40"><defs><style>.cls-1{fill:#cde3f9;}.cls-2{fill:#aed8f4;}.cls-3{fill:#69a8f4;}.cls-4{fill:#ddeafb;}.cls-5{fill:#9dc6fb;}.cls-6{fill:#80b4fb;}.cls-7{fill:#95d6a4;}.cls-8{fill:#78c2a4;}.cls-9{fill:#00dd80;}.cls-10{fill:#00aa63;}.cls-11{fill:#fff;}.cls-12{fill:#ffc8b0;}.cls-13{fill:#0092db;}.cls-14{fill:#00acef;}.cls-15{fill:#f7e9b2;}.cls-16{fill:#f9d369;}.cls-17{fill:#ffefeb;}</style></defs><path class="cls-1" d="M35.2,11.9H23.4V32H35.7V12.4a.5.5,0,0,0-.5-.5Z"/><path class="cls-2" d="M26.9,11.9H23.4V32h3V12.4a.5.5,0,0,1,.5-.5Z"/><path class="cls-3" d="M34.2,23.2H31.9v2.2h2.3a.3.3,0,0,0,.3-.3V23.5A.3.3,0,0,0,34.2,23.2Z"/><path class="cls-3" d="M27.8,23.5v1.6a.3.3,0,0,0,.3.3h2.3V23.2H28.1A.3.3,0,0,0,27.8,23.5Z"/><path class="cls-3" d="M34.2,18.7H31.9v2.2h2.3a.3.3,0,0,0,.3-.3V19A.3.3,0,0,0,34.2,18.7Z"/><path class="cls-3" d="M27.8,19v1.6a.3.3,0,0,0,.3.3h2.3V18.7H28.1A.3.3,0,0,0,27.8,19Z"/><path class="cls-3" d="M34.2,27.7H31.9v2.2h2.3a.3.3,0,0,0,.3-.3V28A.3.3,0,0,0,34.2,27.7Z"/><path class="cls-3" d="M27.8,28v1.6a.3.3,0,0,0,.3.3h2.3V27.7H28.1A.3.3,0,0,0,27.8,28Z"/><path class="cls-3" d="M34.2,14.2H31.9v2.2h2.3a.3.3,0,0,0,.3-.3V14.5a.3.3,0,0,0-.3-.3Z"/><path class="cls-3" d="M27.8,14.5v1.6a.3.3,0,0,0,.3.3h2.3V14.2H28.1a.3.3,0,0,0-.3.3Z"/><path class="cls-4" d="M29.7,11.2a.5.5,0,0,1-.5-.5v-3a.5.5,0,0,1,.5-.4.4.4,0,0,1,.4.4v3A.5.5,0,0,1,29.7,11.2Z"/><path class="cls-5" d="M31.7,8.9h-4a.4.4,0,0,0-.4.4v2.6h4.8V9.3A.4.4,0,0,0,31.7,8.9Z"/><path class="cls-6" d="M30.7,8.9h-3a.4.4,0,0,0-.4.4v2.6h3V9.3A.4.4,0,0,1,30.7,8.9Z"/><path class="cls-7" d="M19.1,5.4V3.5a.5.5,0,0,0-.5-.5H6.7a.5.5,0,0,0-.5.5V5.4Z"/><path class="cls-8" d="M9.7,3h-3a.5.5,0,0,0-.5.5V5.4h3V3.5A.5.5,0,0,1,9.7,3Z"/><path class="cls-9" d="M20.3,5.2H4.8a.5.5,0,0,0-.5.5V32H20.9V5.7a.6.6,0,0,0-.6-.5Z"/><path class="cls-10" d="M7.8,5.2h-3a.5.5,0,0,0-.5.5V32h3V5.7a.5.5,0,0,1,.5-.5Z"/><rect class="cls-11" x="10.3" y="8.2" width="2.7" height="20.34" rx="0.4"/><rect class="cls-11" x="15.4" y="8.2" width="2.7" height="20.34" rx="0.4"/><path class="cls-12" d="M19.6,19.6h0a1,1,0,0,1,1,1v7.1a0,0,0,0,1,0,0H18.6a0,0,0,0,1,0,0V20.7A1,1,0,0,1,19.6,19.6Z"/><path class="cls-12" d="M17.9,24.5l1,4.5-2.2.4-.5-1.6-.7-2.9a1.1,1.1,0,0,1,1-1.4,1,1,0,0,1,.9.2A1.2,1.2,0,0,1,17.9,24.5Z"/><path class="cls-12" d="M21.6,22.5h0a1,1,0,0,1,1,1v5.4a0,0,0,0,1,0,0H20.7a0,0,0,0,1,0,0V23.5A1,1,0,0,1,21.6,22.5Z"/><path class="cls-12" d="M23.5,22.9h0a1,1,0,0,1,1,1v4.7a0,0,0,0,1,0,0H22.6a0,0,0,0,1,0,0V23.8A1,1,0,0,1,23.5,22.9Z"/><path class="cls-12" d="M25.5,23.6h0a1,1,0,0,1,1,1v4.1a0,0,0,0,1,0,0H24.5a0,0,0,0,1,0,0V24.5A1,1,0,0,1,25.5,23.6Z"/><path class="cls-12" d="M26.4,27.8h0v.5a18,18,0,0,1-.6,3.1,14.1,14.1,0,0,1-2,3.3s-3.7.9-5.5-1.5a10.1,10.1,0,0,1-1.8-4c-.2-1-.3-1.8-.3-1.8H26.4Z"/><path class="cls-12" d="M18.9,25s-.1,1.5-.7,1.4.1,1.3.1,1.3L20,26.4Z"/><path class="cls-13" d="M18.7,33.6H24a1.3,1.3,0,0,1,1.1.9l.3,1A1.1,1.1,0,0,1,24.3,37H18.4a1.1,1.1,0,0,1-1.1-1.5l.3-1A1.2,1.2,0,0,1,18.7,33.6Z"/><path class="cls-14" d="M20.4,33.6H24a1.3,1.3,0,0,1,1.1.9l.3,1A1.1,1.1,0,0,1,24.3,37H18.6l.7-2.5A1.3,1.3,0,0,1,20.4,33.6Z"/><path class="cls-15" d="M19.2,34.6a.7.7,0,0,1,.2,1.4h-.2a.7.7,0,0,1-.7-.7v-.2A.8.8,0,0,1,19.2,34.6Z"/><path class="cls-16" d="M18.7,35a.8.8,0,0,1,.7.7h0V36h-.2a.7.7,0,0,1-.7-.7v-.2Z"/><path class="cls-17" d="M19.6,20.2h0a.6.6,0,0,0-.6.6v.8h1.3v-.8C20.3,20.4,20,20.2,19.6,20.2Z"/><path class="cls-17" d="M17.3,24.6a.6.6,0,0,0-.8-.5.6.6,0,0,0-.4.8l.2.7,1.2-.3Z"/></svg>