<svg id="Layer_1" data-name="Layer 1" xmlns="http://www.w3.org/2000/svg" viewBox="0 0 40 40"><defs><style>.cls-1{fill:#00aa63;}.cls-2{fill:#00dd80;}.cls-3{fill:#f2f2f2;}.cls-4{fill:#2dbe60;}</style></defs><path class="cls-1" d="M24.2,3H15.8a2.3,2.3,0,0,0,0,4.6h3.3V9.3h1.8V7.6h3.3a2.3,2.3,0,1,0,0-4.6Zm0,2.8H15.8a.5.5,0,0,1-.4-.5.4.4,0,0,1,.4-.4h8.4a.4.4,0,0,1,.4.4A.5.5,0,0,1,24.2,5.8Z"/><path class="cls-2" d="M33.9,23.1A13.9,13.9,0,1,1,19.1,9.3h1.8A13.8,13.8,0,0,1,33.9,23.1Z"/><path class="cls-1" d="M33.9,23.1A13.9,13.9,0,0,1,20,37V9.2A13.9,13.9,0,0,1,33.9,23.1Z"/><path class="cls-3" d="M26.5,19.8a7.2,7.2,0,0,0-2.9-3.1,7.6,7.6,0,0,0-6.9-.2,7.4,7.4,0,0,0-.8,12.6,7.5,7.5,0,0,0,7.4.5A7.3,7.3,0,0,0,26.5,19.8Z"/><path class="cls-4" d="M23.4,25.5h-4a.7.7,0,0,1-.7-.7V19a.7.7,0,0,1,.7-.7.7.7,0,0,1,.6.7v5.1h3.4a.7.7,0,0,1,0,1.4Z"/></svg>